# xmcd
#
# Track frame offsets: 
#        150
#        10199
#        20270
#        28583
#        41170
#        52307
#        64479
#        77080
#        89196
#        97026
#        107972
#        117397
#        128769
#        141552
#        150483
#        162496
#
# Disc length: 2303 seconds
#
# Revision: 1
# Processed by: cddbd v1.5.2PL0 Copyright (c) Steve Scherf et al.
# Submitted via: ExactAudioCopy v1.0b3
#
DISCID=e908fd10
DTITLE=Johnny Cash - 16 Greatest Hits
DYEAR=2005
DGENRE=Country
TTITLE0=Ballad of a Teenage Queen
TTITLE1=Get Rhythm
TTITLE2=Guess Things Happen That Way
TTITLE3=I Walk the Line
TTITLE4=The Ways of a Woman in Love
TTITLE5=Home of the Blues
TTITLE6=Folsom Prison Blues
TTITLE7=You're the Nearest Thing to Heaven
TTITLE8=Come in Stranger
TTITLE9=Train of Love
TTITLE10=Luther's Boogie
TTITLE11=Don't Make Me Go
TTITLE12=Next in Line
TTITLE13=Katy Too
TTITLE14=Thanks a Lot
TTITLE15=There You Go
EXTD=YEAR: 2005
EXTT0=
EXTT1=
EXTT2=
EXTT3=
EXTT4=
EXTT5=
EXTT6=
EXTT7=
EXTT8=
EXTT9=
EXTT10=
EXTT11=
EXTT12=
EXTT13=
EXTT14=
EXTT15=
PLAYORDER=
